<svg width="14" height="14" viewBox="0 0 14 14" fill="none" xmlns="http://www.w3.org/2000/svg">
<path d="M3.7562 4.51224H3.12205C2.78568 4.51224 2.46309 4.64586 2.22523 4.88371C1.98738 5.12156 1.85376 5.44416 1.85376 5.78053V11.4878C1.85376 11.8242 1.98738 12.1468 2.22523 12.3847C2.46309 12.6225 2.78568 12.7561 3.12205 12.7561H8.82937C9.16574 12.7561 9.48834 12.6225 9.72619 12.3847C9.96404 12.1468 10.0977 11.8242 10.0977 11.4878V10.8537M9.46352 3.24395L11.366 5.14639M12.2442 4.24907C12.494 3.99931 12.6343 3.66057 12.6343 3.30736C12.6343 2.95415 12.494 2.61541 12.2442 2.36565C11.9945 2.1159 11.6557 1.97559 11.3025 1.97559C10.9493 1.97559 10.6106 2.1159 10.3608 2.36565L5.02449 7.68297V9.58541H6.92693L12.2442 4.24907Z" stroke="white" stroke-width="2" stroke-linecap="round" stroke-linejoin="round"/>
</svg>
