<svg width="19" height="14" viewBox="0 0 19 14" fill="none" xmlns="http://www.w3.org/2000/svg">
<path d="M1.9 14C1.3775 14 0.930051 13.8285 0.557651 13.4855C0.185251 13.1425 -0.00063172 12.7307 1.6129e-06 12.25V1.75C1.6129e-06 1.26875 0.186202 0.856626 0.558602 0.513626C0.931001 0.170626 1.37813 -0.000581848 1.9 1.48557e-06H17.1C17.6225 1.48557e-06 18.0699 0.171501 18.4423 0.514501C18.8147 0.857501 19.0006 1.26933 19 1.75V12.25C19 12.7312 18.8138 13.1434 18.4414 13.4864C18.069 13.8294 17.6219 14.0006 17.1 14H1.9ZM9.5 7.875L17.1 3.5V1.75L9.5 6.125L1.9 1.75V3.5L9.5 7.875Z" fill="#FD8002"/>
</svg>
