<svg width="16" height="17" viewBox="0 0 16 17" fill="none" xmlns="http://www.w3.org/2000/svg">
<path d="M14.4323 11.5928L12.17 11.3184C11.904 11.2852 11.6343 11.3165 11.3813 11.4099C11.1283 11.5034 10.8986 11.6565 10.7093 11.8578L9.07041 13.5991C6.54193 12.2328 4.48677 10.0492 3.20082 7.36264L4.84858 5.61188C5.23157 5.20495 5.41862 4.63714 5.35627 4.05986L5.09797 1.67505C5.04747 1.21339 4.83895 0.787591 4.51211 0.478712C4.18527 0.169833 3.76293 -0.00055102 3.32551 1.3388e-06H1.78464C0.778165 1.3388e-06 -0.0590758 0.889574 0.0032719 1.95895C0.475333 10.0408 6.55869 16.495 14.1562 16.9965C15.1627 17.0628 15.9999 16.1732 15.9999 15.1038V13.4666C16.0088 12.5108 15.3319 11.7064 14.4323 11.5928Z" fill="#FD8002"/>
</svg>
