<svg width="14" height="14" viewBox="0 0 14 14" fill="none" xmlns="http://www.w3.org/2000/svg">
<circle cx="7" cy="7" r="7" transform="matrix(-1 0 0 1 14 0)" fill="#FD8002"/>
<path d="M10.3536 6.64645C10.5488 6.84171 10.5488 7.15829 10.3536 7.35355L7.17157 10.5355C6.97631 10.7308 6.65973 10.7308 6.46447 10.5355C6.2692 10.3403 6.2692 10.0237 6.46447 9.82843L9.29289 7L6.46447 4.17157C6.2692 3.97631 6.2692 3.65973 6.46447 3.46447C6.65973 3.2692 6.97631 3.2692 7.17157 3.46447L10.3536 6.64645ZM3 6.5L10 6.5L10 7.5L3 7.5L3 6.5Z" fill="white"/>
</svg>